<svg xmlns="http://www.w3.org/2000/svg" xmlns:xlink="http://www.w3.org/1999/xlink" version="1.1" id="&#1057;&#1083;&#1086;&#1081;_1" x="0px" y="0px" width="100px" height="100px" viewBox="0 0 100 100" enable-background="new 0 0 100 100" xml:space="preserve">
<path d="M91.5,50c0-17.021-10.305-31.676-25-38.07V0h-3v10.767C59.265,9.305,54.726,8.5,50,8.5c-22.38,0-40.668,17.81-41.462,40H0v3  h8.538C9.332,73.689,27.62,91.5,50,91.5c4.726,0,9.265-0.805,13.5-2.267V100h3V88.069C81.195,81.676,91.5,67.021,91.5,50z M50,11.5  c4.749,0,9.297,0.87,13.5,2.449v10.062l-32,13.714V25h-3v23.5H11.538C12.33,27.964,29.274,11.5,50,11.5z M50,88.5  c-20.726,0-37.67-16.465-38.462-37H28.5V75h3V62.006l7.458,9.971l2.355-5.494L63.5,75.99v10.061C59.297,87.63,54.749,88.5,50,88.5z   M66.5,84.777V74.012L42.496,63.725l2.355-5.496L31.5,59.821V40.99l35-15V15.223c12.995,6.19,22,19.45,22,34.777  C88.5,65.326,79.495,78.587,66.5,84.777z"/>
</svg>