<svg xmlns="http://www.w3.org/2000/svg" xmlns:xlink="http://www.w3.org/1999/xlink" version="1.1" id="Layer_1" x="0px" y="0px" width="100px" height="100px" viewBox="0 0 100 100" enable-background="new 0 0 100 100" xml:space="preserve">
<g>
	<path fill="#000000" d="M68.729,14.037c0.155,0,0.268-0.125,0.268-0.268v-0.791c0-0.14-0.112-0.267-0.268-0.267h-5.642   c-0.155,0-0.269,0.127-0.269,0.267v9.34c0,0.143,0.113,0.268,0.269,0.268h5.642c0.155,0,0.268-0.125,0.268-0.268v-0.775   c0-0.143-0.112-0.269-0.268-0.269h-4.457v-3.033h3.766c0.142,0,0.269-0.112,0.269-0.269v-0.791c0-0.141-0.127-0.27-0.269-0.27   h-3.766v-2.876H68.729z"/>
	<path fill="#000000" d="M26.447,41.415c0-1.482-1.228-2.609-2.934-2.609h-3.16c-0.155,0-0.269,0.127-0.269,0.266v9.34   c0,0.141,0.113,0.268,0.269,0.268h3.315c1.777,0,3.074-1.142,3.074-2.722c0-1.298-1.016-1.989-1.763-2.3   C25.644,43.275,26.447,42.499,26.447,41.415z M21.524,40.13h1.904c0.902,0,1.453,0.593,1.453,1.453   c0,0.848-0.551,1.509-1.453,1.509h-1.904V40.13z M25.179,45.844c0,0.873-0.663,1.537-1.525,1.537h-2.143v-3.019h1.932   C24.36,44.362,25.179,44.982,25.179,45.844z"/>
	<path fill="#000000" d="M71.526,85.541l-0.65-0.633c-0.084-0.072-0.211-0.086-0.338,0.014c-0.678,0.521-1.396,0.93-2.426,0.93   c-2.018,0-3.555-1.68-3.555-3.652c0-1.975,1.523-3.67,3.54-3.67c0.874,0,1.777,0.369,2.44,0.945c0.127,0.129,0.254,0.129,0.353,0   l0.622-0.635c0.111-0.113,0.111-0.281-0.014-0.395c-0.961-0.832-1.99-1.312-3.416-1.312c-2.821,0-5.092,2.272-5.092,5.092   c0,2.823,2.271,5.063,5.092,5.063c1.256,0,2.47-0.435,3.43-1.365C71.61,85.825,71.638,85.641,71.526,85.541z"/>
	<path fill="#000000" d="M28.834,50.591h-5.419c-0.273,0-0.496,0.222-0.496,0.497c0,0.273,0.223,0.496,0.496,0.496h5.419   c0.267,14.41,12.062,26.053,26.533,26.053c1.323,0,2.623-0.1,3.896-0.288v4.861c0,0.274,0.222,0.496,0.496,0.496   c0.273,0,0.496-0.222,0.496-0.496v-5.031c12.311-2.302,21.66-13.122,21.66-26.091c0-12.968-9.35-23.787-21.66-26.088v-5.033   c0-0.274-0.223-0.496-0.496-0.496c-0.274,0-0.496,0.222-0.496,0.496v4.862c-1.272-0.188-2.572-0.288-3.896-0.288   C40.896,24.541,29.101,36.183,28.834,50.591z M59.263,74.477c-1.269,0.211-2.568,0.326-3.896,0.326   c-12.909,0-23.434-10.371-23.699-23.219h13.796v10.818c0,0.273,0.223,0.496,0.496,0.496s0.496-0.223,0.496-0.496v-4.92   l12.807,12.805V74.477z M60.108,32.444c0.094-0.093,0.146-0.219,0.146-0.351v-4.208c10.737,2.259,18.824,11.803,18.824,23.203   c0,11.4-8.087,20.945-18.824,23.205v-4.211c0-0.131-0.053-0.258-0.146-0.351L46.545,56.169c-0.026-0.026-0.059-0.04-0.089-0.06   V46.099L52.554,40c0.419,0.294,0.936,0.377,1.477,0.189l5.705-2.186c0.334-0.131,0.576-0.418,0.65-0.771   c0.072-0.35-0.04-0.711-0.296-0.96l-1.929-1.88L60.108,32.444z M55.367,27.376c1.327,0,2.627,0.115,3.896,0.325v4.187L57.451,33.7   l-1.938-1.889c-0.256-0.25-0.624-0.356-0.97-0.273c-0.2,0.044-0.376,0.149-0.514,0.294c-0.105,0.104-0.186,0.233-0.238,0.377   l-2.062,5.776c-0.181,0.567-0.053,1.004,0.13,1.307l-5.403,5.404v-4.92c0-0.274-0.223-0.496-0.496-0.496s-0.496,0.222-0.496,0.496   v10.815H31.668C31.934,37.746,42.458,27.376,55.367,27.376z"/>
</g>
</svg>