<svg xmlns="http://www.w3.org/2000/svg" xmlns:xlink="http://www.w3.org/1999/xlink" version="1.1" id="&#1057;&#1083;&#1086;&#1081;_1" x="0px" y="0px" width="100px" height="100px" viewBox="0 0 100 100" enable-background="new 0 0 100 100" xml:space="preserve">
<path d="M91.5,50c0-17.021-10.305-31.676-25-38.07V0h-3v10.767C59.265,9.305,54.726,8.5,50,8.5C27.117,8.5,8.5,27.117,8.5,50  c0,4.726,0.805,9.265,2.267,13.5H0v3h11.93c6.394,14.695,21.048,25,38.07,25c4.726,0,9.265-0.805,13.5-2.267V100h3V88.069  C81.195,81.676,91.5,67.021,91.5,50z M11.5,50c0-21.229,17.271-38.5,38.5-38.5c4.749,0,9.297,0.87,13.5,2.449V33.5h-22V25h-3v38.5  h-6.098l-10.354-5.979V63.5h-8.099C12.37,59.297,11.5,54.749,11.5,50z M50,88.5c-15.327,0-28.587-9.005-34.777-22h6.825v5.979  L32.402,66.5H38.5V75h3v-8.5h22v19.551C59.297,87.63,54.749,88.5,50,88.5z M66.5,84.777V63.5h-25v-27h25V15.223  c12.995,6.19,22,19.45,22,34.777C88.5,65.326,79.495,78.587,66.5,84.777z"/>
</svg>