<svg xmlns="http://www.w3.org/2000/svg" xmlns:xlink="http://www.w3.org/1999/xlink" version="1.1" id="Layer_1" x="0px" y="0px" width="100px" height="100px" viewBox="0 0 100 100" enable-background="new 0 0 100 100" xml:space="preserve">
<g>
	<path fill="#000000" d="M78.514,40.489c-0.718,0-1.321,0.536-1.407,1.249l-1.617,13.518c-0.182,0.626-0.752,1.064-1.437,1.075   c-0.642,0-1.213-0.413-1.416-1.016L68.839,28c-0.008-0.062-0.021-0.122-0.037-0.183c-0.518-1.868-2.232-3.173-4.249-3.173   c-1.973,0.038-3.672,1.402-4.132,3.318c-0.014,0.054-0.023,0.108-0.029,0.163l-3.246,27.13c-0.181,0.626-0.75,1.064-1.435,1.075   c-0.642,0-1.213-0.413-1.416-1.016l-3.796-27.314c-0.01-0.062-0.021-0.124-0.039-0.185c-0.518-1.867-2.232-3.172-4.25-3.172   c-1.973,0.038-3.671,1.402-4.131,3.318c-0.014,0.054-0.023,0.108-0.029,0.163l-3.244,27.13c-0.182,0.625-0.753,1.064-1.437,1.075   c-0.644,0-1.214-0.413-1.415-1.015L32.155,28c-0.008-0.062-0.021-0.124-0.038-0.185c-0.519-1.867-2.235-3.171-4.247-3.171   c-1.974,0.038-3.673,1.402-4.133,3.318c-0.014,0.054-0.023,0.108-0.029,0.163l-1.479,12.363H8.827   c-0.783,0-1.418,0.635-1.418,1.417c0,0.783,0.635,1.418,1.418,1.418h14.659c0.718,0,1.322-0.537,1.407-1.249l1.617-13.517   c0.182-0.627,0.754-1.067,1.435-1.079c0.643,0,1.215,0.416,1.418,1.021l3.798,27.315c0.01,0.062,0.021,0.122,0.038,0.183   c0.516,1.865,2.23,3.168,4.243,3.168c1.975-0.033,3.676-1.396,4.137-3.314c0.014-0.054,0.023-0.108,0.029-0.163l3.244-27.13   c0.182-0.627,0.754-1.067,1.437-1.079c0.643,0,1.214,0.415,1.417,1.02l3.797,27.316c0.008,0.062,0.021,0.124,0.038,0.185   c0.52,1.864,2.234,3.166,4.247,3.166c1.973-0.033,3.672-1.397,4.131-3.316c0.014-0.053,0.023-0.107,0.029-0.161l3.246-27.13   c0.182-0.627,0.754-1.067,1.438-1.079c0.643,0,1.213,0.415,1.415,1.02l3.798,27.316c0.008,0.062,0.021,0.124,0.038,0.185   c0.52,1.864,2.234,3.166,4.245,3.166c1.975-0.033,3.675-1.396,4.135-3.315c0.014-0.054,0.023-0.107,0.029-0.162l1.479-12.364   h13.402c0.782,0,1.417-0.635,1.417-1.418c0-0.782-0.635-1.417-1.417-1.417H78.514z"/>
	<path fill="#000000" d="M8.827,72.52c-0.783,0-1.418,0.635-1.418,1.418s0.635,1.418,1.418,1.418h37.056   c0.782,0,1.417-0.635,1.417-1.418v-8.241l1.729,0.003c0.356-0.002,0.694-0.182,0.883-0.481c0.114-0.171,0.169-0.368,0.168-0.567   c0-0.146-0.03-0.297-0.093-0.438l-2.547-5.579c-0.393-0.786-1.066-0.903-1.436-0.903l-0.294-0.001   c-0.628-0.003-1.155,0.327-1.457,0.93l-2.57,5.544c-0.145,0.324-0.12,0.703,0.069,1.004c0.195,0.301,0.526,0.482,0.884,0.482   l1.83,0.003v6.827H8.827z"/>
</g>
</svg>