<svg xmlns="http://www.w3.org/2000/svg" xmlns:xlink="http://www.w3.org/1999/xlink" version="1.1" id="Layer_1" x="0px" y="0px" width="100px" height="100px" viewBox="0 0 100 100" enable-background="new 0 0 100 100" xml:space="preserve">
<g>
	<path fill="#000000" d="M49.5,76.046c14.639,0,26.549-11.908,26.549-26.545c0-14.638-11.91-26.547-26.549-26.547   S22.951,34.863,22.951,49.501C22.951,64.138,34.861,76.046,49.5,76.046z M49.5,25.789c13.076,0,23.715,10.637,23.715,23.712   c0,13.074-10.639,23.711-23.715,23.711S25.787,62.575,25.787,49.501C25.787,36.426,36.424,25.789,49.5,25.789z"/>
	<path fill="#000000" d="M43.098,56.728h1.771c0.326,0,0.51-0.203,0.59-0.408l0.996-2.199h6.09l0.998,2.199   c0.143,0.286,0.285,0.408,0.59,0.408h1.771c0.307,0,0.469-0.266,0.346-0.528l-6.27-13.704c-0.062-0.121-0.145-0.227-0.348-0.227   h-0.205c-0.184,0-0.285,0.105-0.344,0.227L42.75,56.199C42.629,56.462,42.791,56.728,43.098,56.728z M49.449,47.381h0.061   l2.037,4.479h-4.092L49.449,47.381z"/>
</g>
</svg>