<svg xmlns="http://www.w3.org/2000/svg" xmlns:xlink="http://www.w3.org/1999/xlink" version="1.1" id="Layer_1" x="0px" y="0px" width="100px" height="100px" viewBox="0 0 100 100" enable-background="new 0 0 100 100" xml:space="preserve">
<g>
	<path fill="#000000" d="M27.69,56.047c2.924,0,5.369-2.087,5.927-4.85l39.88-7.493c0.77-0.145,1.276-0.885,1.132-1.654   c-0.146-0.769-0.886-1.275-1.655-1.131l-39.475,7.417c-0.725-2.528-3.052-4.385-5.809-4.385c-2.846,0-5.232,1.979-5.872,4.631   L8.827,48.58c-0.783,0-1.417,0.634-1.418,1.417c0,0.782,0.635,1.417,1.418,1.417l12.991,0.002   C22.458,54.068,24.845,56.047,27.69,56.047z M27.69,46.785c1.771,0,3.211,1.442,3.211,3.214s-1.439,3.214-3.211,3.214   s-3.213-1.442-3.213-3.214S25.919,46.785,27.69,46.785z"/>
	<path fill="#000000" d="M93.174,69.756L93.174,69.756L80.182,69.76c-0.64-2.653-3.025-4.633-5.87-4.633   c-3.336,0-6.05,2.714-6.05,6.05c0,3.333,2.714,6.044,6.05,6.044c2.845,0,5.23-1.977,5.87-4.627l12.993-0.004   c0.782,0,1.416-0.635,1.416-1.417C94.591,70.39,93.956,69.756,93.174,69.756z M74.312,74.387c-1.773,0-3.215-1.44-3.215-3.21   c0-1.773,1.441-3.216,3.215-3.216c1.77,0,3.211,1.442,3.211,3.216C77.522,72.946,76.081,74.387,74.312,74.387z"/>
	<path fill="#000000" d="M93.174,27.406L93.174,27.406L80.182,27.41c-0.64-2.652-3.025-4.631-5.87-4.631   c-3.336,0-6.05,2.713-6.05,6.048c0,3.334,2.714,6.046,6.05,6.046c2.845,0,5.23-1.978,5.87-4.629l12.993-0.004   c0.782,0,1.416-0.635,1.416-1.417C94.591,28.04,93.956,27.406,93.174,27.406z M74.312,32.039c-1.773,0-3.215-1.441-3.215-3.212   c0-1.771,1.441-3.214,3.215-3.214c1.77,0,3.211,1.442,3.211,3.214C77.522,30.598,76.081,32.039,74.312,32.039z"/>
</g>
</svg>