<svg xmlns="http://www.w3.org/2000/svg" xmlns:xlink="http://www.w3.org/1999/xlink" version="1.1" id="Layer_1" x="0px" y="0px" width="100px" height="100px" viewBox="0 0 100 100" enable-background="new 0 0 100 100" xml:space="preserve">
<path fill="#000000" d="M44.74,52.593c0.909,0.934,2.082,1.572,3.343,1.851l0.001,22.268c0,0.783,0.635,1.417,1.417,1.417  s1.417-0.634,1.417-1.417l-0.001-22.268c1.261-0.278,2.433-0.917,3.343-1.854l19.827-20.48c1.854-1.905,2.385-4.729,1.347-7.202  c-1.044-2.451-3.441-4.035-6.106-4.035H29.666c-2.664,0-5.061,1.584-6.108,4.048c-0.343,0.826-0.517,1.693-0.517,2.578  c0,1.732,0.664,3.37,1.869,4.608L44.74,52.593z M69.327,23.706c1.527,0,2.9,0.908,3.496,2.306c0.594,1.414,0.292,3.032-0.771,4.123  l-19.828,20.48c-0.37,0.382-0.82,0.674-1.308,0.87l-0.001-27.779H69.327z M26.171,26.018c0.597-1.404,1.97-2.312,3.495-2.312h18.416  l0.001,27.78c-0.488-0.197-0.938-0.488-1.309-0.868L26.945,30.133c-0.689-0.709-1.069-1.645-1.069-2.635  C25.876,26.988,25.977,26.486,26.171,26.018z"/>
</svg>