<svg xmlns="http://www.w3.org/2000/svg" xmlns:xlink="http://www.w3.org/1999/xlink" version="1.1" id="Layer_1" x="0px" y="0px" width="100px" height="100px" viewBox="0 0 100 100" enable-background="new 0 0 100 100" xml:space="preserve">
<g>
	<path fill="#000000" d="M29.225,57.854c0,0.781,0.635,1.416,1.416,1.416h37.719c0.781,0,1.416-0.635,1.416-1.416   c0-0.783-0.635-1.418-1.416-1.418H50.918V37.533c2.652-0.643,4.629-3.027,4.629-5.873c0-3.334-2.713-6.049-6.049-6.049   c-3.334,0-6.047,2.715-6.047,6.049c0,2.846,1.979,5.234,4.631,5.873v18.902H30.641C29.859,56.436,29.225,57.07,29.225,57.854z    M46.287,31.66c0-1.771,1.439-3.213,3.211-3.213s3.213,1.441,3.213,3.213s-1.441,3.213-3.213,3.213S46.287,33.432,46.287,31.66z"/>
	<path fill="#000000" d="M62.117,64.91c0-0.781-0.635-1.416-1.416-1.416H38.299c-0.783,0-1.418,0.635-1.418,1.416   c0,0.783,0.635,1.418,1.418,1.418h22.402C61.482,66.328,62.117,65.693,62.117,64.91z"/>
	<path fill="#000000" d="M56.084,71.971c0-0.783-0.635-1.418-1.416-1.418H44.332c-0.783,0-1.418,0.635-1.418,1.418   s0.635,1.418,1.418,1.418h10.336C55.449,73.389,56.084,72.754,56.084,71.971z"/>
</g>
</svg>