<svg xmlns="http://www.w3.org/2000/svg" xmlns:xlink="http://www.w3.org/1999/xlink" version="1.1" id="Layer_1" x="0px" y="0px" width="100px" height="100px" viewBox="0 0 100 100" enable-background="new 0 0 100 100" xml:space="preserve">
<path fill="#000000" d="M93.173,61h-9.026C86.582,58,88,54.707,88,51.041c0-7.916-6.44-14.445-14.355-14.445  c-2.768,0-5.354,0.741-7.547,2.103c-2.194-1.361-4.78-2.17-7.547-2.17c-2.768,0-5.354,0.776-7.549,2.138  c-2.194-1.361-4.781-2.154-7.548-2.154s-5.353,0.783-7.548,2.145c-2.193-1.361-4.78-2.149-7.547-2.149  c-7.916,0-14.356,6.619-14.356,14.535c0,3.668,1.416,6.958,3.853,9.958H8.827c-0.782,0-1.417,0.217-1.417,1s0.635,1,1.417,1h12.841  c0.076,0,0.154,0.256,0.23,0.256c0.252,0,0.504,0.053,0.729-0.077c0.438-0.254,0.708-0.675,0.708-1.181  c0-0.609-0.385-1.099-0.925-1.299c-3.443-2.08-5.572-5.823-5.572-9.853c0-6.353,5.168-11.514,11.521-11.514  c1.839,0,3.578,0.437,5.123,1.206c-2.703,2.611-4.387,6.273-4.387,10.32c0,3.75,3.053,6.803,6.803,6.803  c3.672,0,6.674-2.923,6.799-6.564c0.013-0.077,0.02-0.156,0.02-0.236c0-4.047-1.683-7.707-4.385-10.318  c1.543-0.77,3.283-1.202,5.122-1.202c1.84,0,3.58,0.433,5.124,1.203c-2.701,2.612-4.383,6.271-4.383,10.317  c0,3.75,3.051,6.802,6.802,6.802c3.688,0,6.702-2.952,6.799-6.619c0.008-0.06,0.012-0.121,0.012-0.183  c0-4.046-1.682-7.705-4.382-10.316c1.544-0.771,3.285-1.204,5.125-1.204c1.839,0,3.578,0.433,5.122,1.202  c-2.702,2.611-4.385,6.271-4.385,10.318c0,3.75,3.052,6.802,6.803,6.802c3.672,0,6.673-2.926,6.797-6.569  c0.013-0.075,0.019-0.153,0.019-0.232c0-4.047-1.682-7.707-4.385-10.318c1.544-0.77,3.283-1.202,5.123-1.202  c6.352,0,11.52,5.168,11.52,11.521c0,4.095-2.202,7.915-5.748,9.971c-0.555,0.321-0.824,0.736-0.658,1.355S79.485,63,80.127,63  h13.046c0.782,0,1.417-0.217,1.417-1S93.955,61,93.173,61z M39.881,50.661c-0.01,0.065-0.015,0.132-0.015,0.2  c0,2.188-1.78,3.967-3.968,3.967s-3.967-1.779-3.967-3.967c0-3.469,1.541-6.585,3.975-8.699  C38.294,44.235,39.822,47.272,39.881,50.661z M54.972,50.707c-0.005,0.051-0.009,0.103-0.009,0.154c0,2.188-1.779,3.967-3.966,3.967  c-2.188,0-3.967-1.779-3.967-3.967c0-3.468,1.54-6.582,3.972-8.696C53.396,44.247,54.927,47.302,54.972,50.707z M70.07,50.665  c-0.009,0.063-0.014,0.13-0.014,0.196c0,2.188-1.779,3.967-3.966,3.967c-2.188,0-3.968-1.779-3.968-3.967  c0-3.469,1.541-6.585,3.975-8.698C68.484,44.236,70.014,47.275,70.07,50.665z"/>
</svg>