<svg xmlns="http://www.w3.org/2000/svg" xmlns:xlink="http://www.w3.org/1999/xlink" version="1.1" id="Layer_1" x="0px" y="0px" width="100px" height="100px" viewBox="0 0 100 100" enable-background="new 0 0 100 100" xml:space="preserve">
<g>
	<path fill="#000000" d="M68.73,14.037c0.154,0,0.268-0.125,0.268-0.268v-0.791c0-0.14-0.113-0.267-0.268-0.267h-5.643   c-0.155,0-0.269,0.127-0.269,0.267v9.34c0,0.143,0.113,0.268,0.269,0.268h5.643c0.154,0,0.268-0.125,0.268-0.268v-0.775   c0-0.143-0.113-0.269-0.268-0.269h-4.458v-3.033h3.766c0.142,0,0.269-0.112,0.269-0.269v-0.791c0-0.141-0.127-0.27-0.269-0.27   h-3.766v-2.876H68.73z"/>
	<path fill="#000000" d="M23.514,38.805h-3.159c-0.155,0-0.27,0.127-0.27,0.266v9.34c0,0.141,0.114,0.268,0.27,0.268h3.314   c1.777,0,3.074-1.142,3.074-2.722c0-1.298-1.015-1.989-1.762-2.3c0.662-0.382,1.466-1.158,1.466-2.242   C26.447,39.933,25.221,38.805,23.514,38.805z M21.524,40.13h1.903c0.903,0,1.455,0.593,1.455,1.453   c0,0.848-0.552,1.509-1.455,1.509h-1.903V40.13z M25.179,45.844c0,0.873-0.663,1.537-1.524,1.537h-2.144v-3.019h1.932   C24.36,44.362,25.179,44.982,25.179,45.844z"/>
	<path fill="#000000" d="M68.099,78.529c0.874,0,1.776,0.369,2.44,0.945c0.126,0.129,0.254,0.129,0.353,0l0.62-0.635   c0.113-0.113,0.113-0.281-0.013-0.395c-0.96-0.832-1.99-1.312-3.417-1.312c-2.82,0-5.091,2.272-5.091,5.092   c0,2.823,2.271,5.063,5.091,5.063c1.257,0,2.472-0.435,3.43-1.365c0.1-0.099,0.127-0.283,0.015-0.383l-0.649-0.633   c-0.084-0.072-0.212-0.086-0.338,0.014c-0.678,0.521-1.396,0.93-2.427,0.93c-2.018,0-3.555-1.68-3.555-3.652   C64.558,80.225,66.081,78.529,68.099,78.529z"/>
	<path fill="#000000" d="M60.255,25v-5.033c0-0.274-0.223-0.496-0.496-0.496s-0.496,0.222-0.496,0.496v4.862   c-1.271-0.188-2.572-0.288-3.896-0.288c-14.472,0-26.267,11.642-26.533,26.05h-5.419c-0.273,0-0.496,0.222-0.496,0.497   c0,0.273,0.223,0.496,0.496,0.496h5.419c0.267,14.41,12.062,26.053,26.533,26.053c1.323,0,2.624-0.1,3.896-0.288v4.861   c0,0.274,0.223,0.496,0.496,0.496s0.496-0.222,0.496-0.496v-5.031c12.311-2.302,21.66-13.122,21.66-26.091   C81.915,38.12,72.565,27.301,60.255,25z M55.367,27.376c1.327,0,2.627,0.115,3.896,0.325v4.187L46.456,44.697v-4.921   c0-0.274-0.223-0.496-0.496-0.496s-0.496,0.222-0.496,0.496v10.815H31.668C31.934,37.746,42.458,27.376,55.367,27.376z    M59.263,74.477c-1.269,0.211-2.568,0.326-3.896,0.326c-12.909,0-23.434-10.371-23.699-23.219h13.796v10.818   c0,0.273,0.223,0.496,0.496,0.496s0.496-0.223,0.496-0.496v-4.921l5.713,5.712l-1.962,2.012c-0.251,0.256-0.356,0.624-0.274,0.971   c0.044,0.2,0.15,0.374,0.295,0.512c0.103,0.105,0.232,0.186,0.377,0.238l5.775,2.063c0.625,0.2,1.096,0.025,1.399-0.185   l1.483,1.482V74.477z M60.255,74.293v-4.211c0-0.131-0.053-0.258-0.146-0.351l-1.651-1.651c0.245-0.402,0.302-0.888,0.125-1.391   l-2.186-5.707c-0.13-0.332-0.418-0.576-0.77-0.648c-0.35-0.072-0.711,0.039-0.96,0.296l-1.807,1.854l-6.315-6.314   c-0.026-0.026-0.06-0.04-0.09-0.06V46.1l13.653-13.655c0.093-0.093,0.146-0.219,0.146-0.351v-4.208   c10.738,2.259,18.826,11.803,18.826,23.203C79.081,62.488,70.993,72.033,60.255,74.293z"/>
</g>
</svg>