<svg xmlns="http://www.w3.org/2000/svg" xmlns:xlink="http://www.w3.org/1999/xlink" version="1.1" id="Layer_1" x="0px" y="0px" width="100px" height="100px" viewBox="0 0 100 100" enable-background="new 0 0 100 100" xml:space="preserve">
<g>
	<path fill="#000000" d="M21.818,59.934L8.827,59.932c-0.783,0-1.417,0.634-1.418,1.417c0,0.782,0.635,1.417,1.418,1.417   l12.991,0.002c0.64,2.651,3.026,4.629,5.872,4.629c3.334,0,6.047-2.712,6.047-6.046c0-3.335-2.713-6.048-6.047-6.048   C24.845,55.303,22.458,57.281,21.818,59.934z M27.69,58.137c1.771,0,3.211,1.442,3.211,3.214c0,1.771-1.439,3.212-3.211,3.212   s-3.213-1.441-3.213-3.212C24.478,59.579,25.919,58.137,27.69,58.137z"/>
	<path fill="#000000" d="M93.174,59.932l-12.992,0.002c-0.64-2.652-3.025-4.631-5.87-4.631c-3.336,0-6.05,2.713-6.05,6.048   c0,3.334,2.714,6.046,6.05,6.046c2.845,0,5.23-1.978,5.87-4.629l12.992-0.002c0.783,0,1.417-0.635,1.417-1.417   C94.591,60.565,93.956,59.932,93.174,59.932z M74.312,64.562c-1.773,0-3.215-1.441-3.215-3.212c0-1.771,1.441-3.214,3.215-3.214   c1.77,0,3.211,1.442,3.211,3.214C77.522,63.121,76.081,64.562,74.312,64.562z"/>
	<path fill="#000000" d="M26.273,50.095c0,0.783,0.635,1.417,1.417,1.417h46.621c0.782,0,1.417-0.634,1.417-1.417   s-0.635-1.417-1.417-1.417H52.419V34.021c0-0.783-0.635-1.417-1.418-1.417c-0.782,0-1.417,0.634-1.417,1.417v14.657H27.69   C26.908,48.678,26.273,49.312,26.273,50.095z"/>
</g>
</svg>