<svg xmlns="http://www.w3.org/2000/svg" xmlns:xlink="http://www.w3.org/1999/xlink" version="1.1" id="&#1057;&#1083;&#1086;&#1081;_1" x="0px" y="0px" viewBox="0 0 100 100" enable-background="new 0 0 100 100" xml:space="preserve" height="100px" width="100px">
<path d="M10,71.3c-2.1,0-3.8,1.7-3.8,3.8s1.7,3.8,3.8,3.8h7.5V80c0,1.4,1.1,2.5,2.5,2.5h1.3V90c0,2.1,1.7,3.8,3.8,3.8  s3.8-1.7,3.8-3.8v-7.5h2.5V90c0,2.1,1.7,3.8,3.8,3.8s3.8-1.7,3.8-3.8v-7.5h2.5V90c0,2.1,1.7,3.8,3.8,3.8s3.8-1.7,3.8-3.8v-7.5h2.5  V90c0,2.1,1.7,3.8,3.8,3.8s3.8-1.7,3.8-3.8v-7.5h2.5V90c0,2.1,1.7,3.8,3.8,3.8s3.8-1.7,3.8-3.8v-7.5h2.5V90c0,2.1,1.7,3.8,3.8,3.8  s3.8-1.7,3.8-3.8v-7.5H80c1.4,0,2.5-1.1,2.5-2.5v-1.3H90c2.1,0,3.8-1.7,3.8-3.8s-1.7-3.8-3.8-3.8h-7.5v-2.5H90  c2.1,0,3.8-1.7,3.8-3.8s-1.7-3.8-3.8-3.8h-7.5v-2.5H90c2.1,0,3.8-1.7,3.8-3.8s-1.7-3.8-3.8-3.8h-7.5v-2.5H90c2.1,0,3.8-1.7,3.8-3.8  s-1.7-3.8-3.8-3.8h-7.5v-2.5H90c2.1,0,3.8-1.7,3.8-3.8s-1.7-3.8-3.8-3.8h-7.5v-2.5H90c2.1,0,3.8-1.7,3.8-3.8s-1.7-3.8-3.8-3.8h-7.5  V20c0-1.4-1.1-2.5-2.5-2.5h-1.3V10c0-2.1-1.7-3.8-3.8-3.8s-3.8,1.7-3.8,3.8v7.5h-2.5V10c0-2.1-1.7-3.8-3.8-3.8s-3.8,1.7-3.8,3.8v7.5  h-2.5V10c0-2.1-1.7-3.8-3.8-3.8s-3.8,1.7-3.8,3.8v7.5h-2.5V10c0-2.1-1.7-3.8-3.8-3.8s-3.8,1.7-3.8,3.8v7.5h-2.5V10  c0-2.1-1.7-3.8-3.8-3.8s-3.8,1.7-3.8,3.8v7.5h-2.5V10c0-2.1-1.7-3.8-3.8-3.8s-3.8,1.7-3.8,3.8v7.5H20c-1.4,0-2.5,1.1-2.5,2.5v1.3H10  c-2.1,0-3.8,1.7-3.8,3.8s1.7,3.8,3.8,3.8h7.5v2.5H10c-2.1,0-3.8,1.7-3.8,3.8s1.7,3.8,3.8,3.8h7.5v2.5H10c-2.1,0-3.8,1.7-3.8,3.8  s1.7,3.8,3.8,3.8h7.5v2.5H10c-2.1,0-3.8,1.7-3.8,3.8s1.7,3.8,3.8,3.8h7.5v2.5H10c-2.1,0-3.8,1.7-3.8,3.8s1.7,3.8,3.8,3.8h7.5v2.5H10  z M17.5,76.3H10c-0.7,0-1.3-0.6-1.3-1.3s0.6-1.3,1.3-1.3h7.5V76.3z M82.5,23.8H90c0.7,0,1.3,0.6,1.3,1.3s-0.6,1.3-1.3,1.3h-7.5V23.8  z M82.5,33.8H90c0.7,0,1.3,0.6,1.3,1.3s-0.6,1.3-1.3,1.3h-7.5V33.8z M82.5,43.8H90c0.7,0,1.3,0.6,1.3,1.3s-0.6,1.3-1.3,1.3h-7.5  V43.8z M82.5,53.8H90c0.7,0,1.3,0.6,1.3,1.3s-0.6,1.3-1.3,1.3h-7.5V53.8z M82.5,63.8H90c0.7,0,1.3,0.6,1.3,1.3s-0.6,1.3-1.3,1.3  h-7.5V63.8z M82.5,73.8H90c0.7,0,1.3,0.6,1.3,1.3s-0.6,1.3-1.3,1.3h-7.5V73.8z M26.3,90c0,0.7-0.6,1.3-1.3,1.3s-1.3-0.6-1.3-1.3  v-7.5h2.5V90z M36.3,90c0,0.7-0.6,1.3-1.3,1.3s-1.3-0.6-1.3-1.3v-7.5h2.5V90z M46.3,90c0,0.7-0.6,1.3-1.3,1.3s-1.3-0.6-1.3-1.3v-7.5  h2.5V90z M56.3,90c0,0.7-0.6,1.3-1.3,1.3s-1.3-0.6-1.3-1.3v-7.5h2.5V90z M66.3,90c0,0.7-0.6,1.3-1.3,1.3s-1.3-0.6-1.3-1.3v-7.5h2.5  V90z M76.3,90c0,0.7-0.6,1.3-1.3,1.3s-1.3-0.6-1.3-1.3v-7.5h2.5V90z M73.8,10c0-0.7,0.6-1.3,1.3-1.3s1.3,0.6,1.3,1.3v7.5h-2.5V10z   M63.8,10c0-0.7,0.6-1.3,1.3-1.3s1.3,0.6,1.3,1.3v7.5h-2.5V10z M53.8,10c0-0.7,0.6-1.3,1.3-1.3s1.3,0.6,1.3,1.3v7.5h-2.5V10z   M43.8,10c0-0.7,0.6-1.3,1.3-1.3s1.3,0.6,1.3,1.3v7.5h-2.5V10z M33.8,10c0-0.7,0.6-1.3,1.3-1.3s1.3,0.6,1.3,1.3v7.5h-2.5V10z   M23.8,10c0-0.7,0.6-1.3,1.3-1.3s1.3,0.6,1.3,1.3v7.5h-2.5V10z M22.5,22.5h55v55h-55V22.5z M10,26.3c-0.7,0-1.3-0.6-1.3-1.3  s0.6-1.3,1.3-1.3h7.5v2.5H10z M10,36.3c-0.7,0-1.3-0.6-1.3-1.3s0.6-1.3,1.3-1.3h7.5v2.5H10z M10,46.3c-0.7,0-1.3-0.6-1.3-1.3  s0.6-1.3,1.3-1.3h7.5v2.5H10z M10,56.3c-0.7,0-1.3-0.6-1.3-1.3s0.6-1.3,1.3-1.3h7.5v2.5H10z M10,66.3c-0.7,0-1.3-0.6-1.3-1.3  s0.6-1.3,1.3-1.3h7.5v2.5H10z"/>
<path d="M55,53.8H45c-0.7,0-1.3,0.6-1.3,1.3s0.6,1.3,1.3,1.3h10c0.7,0,1.3-0.6,1.3-1.3S55.7,53.8,55,53.8z"/>
<path d="M55,48.8H45c-0.7,0-1.3,0.6-1.3,1.3s0.6,1.3,1.3,1.3h10c0.7,0,1.3-0.6,1.3-1.3S55.7,48.8,55,48.8z"/>
<path d="M55,43.8H45c-0.7,0-1.3,0.6-1.3,1.3s0.6,1.3,1.3,1.3h10c0.7,0,1.3-0.6,1.3-1.3S55.7,43.8,55,43.8z"/>
</svg>