<svg xmlns="http://www.w3.org/2000/svg" xmlns:xlink="http://www.w3.org/1999/xlink" version="1.1" id="Layer_1" x="0px" y="0px" width="100px" height="100px" viewBox="0 0 100 100" enable-background="new 0 0 100 100" xml:space="preserve">
<g>
	<path fill="#000000" d="M50.999,23.506c-3.334,0-6.046,2.713-6.046,6.049c0,3.334,2.712,6.046,6.046,6.046   c3.335,0,6.05-2.712,6.05-6.046C57.049,26.219,54.334,23.506,50.999,23.506z M50.999,32.766c-1.771,0-3.212-1.439-3.212-3.211   c0-1.772,1.441-3.215,3.212-3.215c1.772,0,3.214,1.442,3.214,3.215C54.213,31.326,52.771,32.766,50.999,32.766z"/>
	<path fill="#000000" d="M40.374,56.623h2.015c0.056,0,0.095-0.045,0.095-0.097v-0.274c0-0.051-0.039-0.098-0.095-0.098h-1.593   v-1.082h1.346c0.05,0,0.095-0.041,0.095-0.096v-0.283c0-0.049-0.045-0.096-0.095-0.096h-1.346V53.57h1.593   c0.056,0,0.095-0.045,0.095-0.097v-0.282c0-0.051-0.039-0.094-0.095-0.094h-2.015c-0.057,0-0.096,0.043-0.096,0.094v3.335   C40.278,56.578,40.317,56.623,40.374,56.623z"/>
	<path fill="#000000" d="M50.236,56.623h1.184c0.634,0,1.099-0.408,1.099-0.971c0-0.465-0.363-0.712-0.63-0.823   c0.236-0.136,0.523-0.413,0.523-0.798c0-0.533-0.439-0.934-1.049-0.934h-1.127c-0.058,0-0.097,0.043-0.097,0.094v3.335   C50.14,56.578,50.179,56.623,50.236,56.623z M50.654,53.57h0.68c0.322,0,0.52,0.213,0.52,0.519c0,0.302-0.197,0.538-0.52,0.538   h-0.68V53.57z M50.647,55.081h0.692c0.328,0,0.62,0.222,0.62,0.528c0,0.314-0.237,0.551-0.545,0.551h-0.768V55.081z"/>
	<path fill="#000000" d="M60.182,56.674c0.448,0,0.883-0.156,1.224-0.488c0.037-0.035,0.047-0.1,0.006-0.137l-0.23-0.224   c-0.032-0.026-0.078-0.03-0.121,0.003c-0.241,0.188-0.499,0.334-0.866,0.334c-0.722,0-1.271-0.602-1.271-1.305   c0-0.709,0.544-1.312,1.267-1.312c0.312,0,0.634,0.131,0.87,0.338c0.043,0.045,0.089,0.045,0.127,0l0.219-0.228   c0.042-0.038,0.042-0.101-0.004-0.14c-0.342-0.298-0.71-0.468-1.22-0.468c-1.009,0-1.819,0.81-1.819,1.817   C58.362,55.875,59.173,56.674,60.182,56.674z"/>
	<path fill="#000000" d="M66.154,59.254V23.205c0-2.392-1.943-4.337-4.332-4.337H40.181c-2.39,0-4.335,1.945-4.335,4.337v36.049   c0,0.783,0.635,1.418,1.418,1.418h3.295c-0.001,0.027-0.008,0.053-0.008,0.079v3.685c-0.078,0.1-0.154,0.203-0.215,0.325   l-2.548,5.552c-0.146,0.326-0.119,0.703,0.074,1.007c0.192,0.298,0.525,0.479,0.882,0.478l1.807-0.004v7.922   c0,0.782,0.635,1.417,1.417,1.417s1.417-0.635,1.417-1.417v-7.928l1.752-0.004c0.358,0.001,0.695-0.181,0.884-0.484   c0.112-0.17,0.165-0.367,0.161-0.566c0.002-0.148-0.03-0.296-0.093-0.436l-2.566-5.572c-0.042-0.084-0.09-0.156-0.138-0.227v-3.747   c0-0.026-0.007-0.052-0.008-0.079h6.213c-0.001,0.027-0.008,0.053-0.008,0.079v18.964c0,0.782,0.635,1.417,1.417,1.417   s1.417-0.635,1.417-1.417V60.751c0-0.026-0.007-0.052-0.008-0.079h6.215c-0.001,0.027-0.008,0.053-0.008,0.079v18.964   c0,0.782,0.635,1.417,1.417,1.417s1.417-0.635,1.417-1.417V60.751c0-0.026-0.007-0.052-0.008-0.079h3.296   C65.52,60.672,66.154,60.037,66.154,59.254z M63.32,57.837H38.682V41.438H63.32V57.837z M63.32,38.604H38.682V23.205   c0-0.828,0.672-1.502,1.499-1.502h21.642c0.826,0,1.498,0.674,1.498,1.502V38.604z"/>
</g>
</svg>